<svg xmlns="http://www.w3.org/2000/svg" height="48" viewBox="0 -960 960 960" width="48"><path d="M184.348-101.174q-33.501 0-58.338-24.836-24.836-24.837-24.836-58.338v-591.304q0-33.734 24.836-58.737 24.837-25.002 58.338-25.002h591.304q33.734 0 58.737 25.002 25.002 25.003 25.002 58.737v591.304q0 33.501-25.002 58.338-25.003 24.836-58.737 24.836H184.348Zm42.304-351.435 169.044-168.478 168.608 167.478 168.609-168.609 42.739 43.305v-196.739H184.348v280.739l42.304 42.304Zm-42.304 268.261h591.304v-274.739l-43.304-43.869-168.044 168.043-168.608-167.478-169.044 169.043-42.304-42.304v191.304Zm0 0v-274.739 83.175-399.74 591.304Z"/></svg>