<svg xmlns="http://www.w3.org/2000/svg" height="48" viewBox="0 -960 960 960" width="48"><path d="M182.522-101.043q-34.968 0-59.354-24.22-24.386-24.22-24.386-58.955v-591.434q0-34.968 24.386-59.354 24.386-24.385 59.354-24.385h388.304v83.739H182.522v591.434h591.434v-388.434h83.174v388.434q0 34.735-25.016 58.955t-58.158 24.22H182.522Zm519.805-514.609v-87.653h-87.936v-70.456h87.653v-87.935H772.5v87.369h87.935v70.739h-87.652v87.936h-70.456Zm-466.805 336h485.565L574.174-474.739l-126.87 167.304L352.87-431.87 235.522-279.652Zm-53-496v591.434-591.434Z"/></svg>